<?xml version="1.0" encoding="UTF-8" standalone="no"?>
<svg
   xmlns:dc="http://purl.org/dc/elements/1.1/"
   xmlns:cc="http://creativecommons.org/ns#"
   xmlns:rdf="http://www.w3.org/1999/02/22-rdf-syntax-ns#"
   xmlns:svg="http://www.w3.org/2000/svg"
   xmlns="http://www.w3.org/2000/svg"
   xmlns:sodipodi="http://sodipodi.sourceforge.net/DTD/sodipodi-0.dtd"
   xmlns:inkscape="http://www.inkscape.org/namespaces/inkscape"
   version="1.2"
   width="245.00998mm"
   height="88.009995mm"
   viewBox="0 0 24500.998 8800.9995"
   preserveAspectRatio="xMidYMid"
   xml:space="preserve"
   id="svg2"
   inkscape:version="0.91 r13725"
   sodipodi:docname="clocks.svg"
   style="fill-rule:evenodd;stroke-width:28.22200012;stroke-linejoin:round"><metadata
     id="metadata405"><rdf:RDF><cc:Work
         rdf:about=""><dc:format>image/svg+xml</dc:format><dc:type
           rdf:resource="http://purl.org/dc/dcmitype/StillImage" /><dc:title></dc:title></cc:Work></rdf:RDF></metadata><sodipodi:namedview
     pagecolor="#ffffff"
     bordercolor="#666666"
     borderopacity="1"
     objecttolerance="10"
     gridtolerance="10"
     guidetolerance="10"
     inkscape:pageopacity="0"
     inkscape:pageshadow="2"
     inkscape:window-width="1920"
     inkscape:window-height="1023"
     id="namedview403"
     showgrid="false"
     fit-margin-top="0"
     fit-margin-left="0"
     fit-margin-right="0"
     fit-margin-bottom="0"
     inkscape:zoom="0.89702955"
     inkscape:cx="347.60444"
     inkscape:cy="150.671"
     inkscape:window-x="0"
     inkscape:window-y="0"
     inkscape:window-maximized="1"
     inkscape:current-layer="g90" /><defs
     class="ClipPathGroup"
     id="defs4" /><defs
     id="defs9" /><defs
     class="TextShapeIndex"
     id="defs50" /><defs
     class="EmbeddedBulletChars"
     id="defs54" /><defs
     class="TextEmbeddedBitmaps"
     id="defs83" /><g
     id="g85"
     transform="translate(-689.8304,-10301.271)"><g
       id="id2"
       class="Master_Slide"><g
         id="bg-id2"
         class="Background" /><g
         id="bo-id2"
         class="BackgroundObjects" /></g></g><g
     class="SlideGroup"
     id="g90"
     transform="translate(-4968.6442,-12692.373)"><g
       class="com.sun.star.drawing.CustomShape"
       id="g99"
       transform="translate(2768.6442,6292.3732)"><g
         id="id3"><rect
           class="BoundingBox"
           x="20227"
           y="7638"
           width="349"
           height="348"
           id="rect102"
           style="fill:none;stroke:none" /><path
           d="m 20401,7639 c 98,0 173,74 173,172 0,98 -75,173 -173,173 -98,0 -173,-75 -173,-173 0,-98 75,-172 173,-172 z m -173,0 0,0 z m 347,346 0,0 z"
           id="path104"
           inkscape:connector-curvature="0"
           style="fill:#000000;stroke:none" /></g></g><g
       class="com.sun.star.drawing.CustomShape"
       id="g106"
       transform="translate(2768.6442,6292.3732)"><g
         id="id4"><rect
           class="BoundingBox"
           x="20400"
           y="13514"
           width="347"
           height="348"
           id="rect109"
           style="fill:none;stroke:none" /><path
           d="m 20572,13514 c 98,0 173,75 173,173 0,98 -75,173 -173,173 -98,0 -172,-75 -172,-173 0,-98 74,-173 172,-173 z m -172,0 0,0 z m 346,347 0,0 z"
           id="path111"
           inkscape:connector-curvature="0"
           style="fill:#000000;stroke:none" /></g></g><g
       class="com.sun.star.drawing.CustomShape"
       id="g113"
       transform="translate(2768.6442,6292.3732)"><g
         id="id5"><rect
           class="BoundingBox"
           x="22991"
           y="8850"
           width="348"
           height="347"
           id="rect116"
           style="fill:none;stroke:none" /><path
           d="m 23164,8850 c 98,0 173,75 173,172 0,97 -75,172 -173,172 -98,0 -172,-75 -172,-172 0,-97 74,-172 172,-172 z m -172,0 0,0 z m 346,345 0,0 z"
           id="path118"
           inkscape:connector-curvature="0"
           style="fill:#000000;stroke:none" /></g></g><g
       class="com.sun.star.drawing.CustomShape"
       id="g120"
       transform="translate(2768.6442,6292.3732)"><g
         id="id6"><rect
           class="BoundingBox"
           x="22818"
           y="12476"
           width="349"
           height="347"
           id="rect123"
           style="fill:none;stroke:none" /><path
           d="m 22992,12476 c 98,0 173,74 173,172 0,98 -75,173 -173,173 -98,0 -173,-75 -173,-173 0,-98 75,-172 173,-172 z m -173,0 0,0 z m 347,346 0,0 z"
           id="path125"
           inkscape:connector-curvature="0"
           style="fill:#000000;stroke:none" /></g></g><g
       class="com.sun.star.drawing.CustomShape"
       id="g127"
       transform="translate(2768.6442,6292.3732)"><g
         id="id7"><rect
           class="BoundingBox"
           x="23509"
           y="10577"
           width="348"
           height="348"
           id="rect130"
           style="fill:none;stroke:none" /><path
           d="m 23682,10577 c 98,0 173,75 173,173 0,98 -75,173 -173,173 -98,0 -172,-75 -172,-173 0,-98 74,-173 172,-173 z m -172,0 0,0 z m 346,347 0,0 z"
           id="path132"
           inkscape:connector-curvature="0"
           style="fill:#000000;stroke:none" /></g></g><g
       class="com.sun.star.drawing.CustomShape"
       id="g134"
       transform="translate(2768.6442,6292.3732)"><g
         id="id8"><rect
           class="BoundingBox"
           x="17119"
           y="10577"
           width="348"
           height="348"
           id="rect137"
           style="fill:none;stroke:none" /><path
           d="m 17292,10577 c 98,0 173,75 173,173 0,98 -75,173 -173,173 -98,0 -173,-75 -173,-173 0,-98 75,-173 173,-173 z m -173,0 0,0 z m 347,347 0,0 z"
           id="path139"
           inkscape:connector-curvature="0"
           style="fill:#000000;stroke:none" /></g></g><g
       class="com.sun.star.drawing.CustomShape"
       id="g141"
       transform="translate(2768.6442,6292.3732)"><g
         id="id9"><rect
           class="BoundingBox"
           x="17241"
           y="7762"
           width="6495"
           height="5976"
           id="rect144"
           style="fill:none;stroke:none" /><path
           d="m 20487,7812 c 1812,0 3196,1272 3196,2937 0,1665 -1384,2937 -3196,2937 -1812,0 -3196,-1272 -3196,-2937 0,-1665 1384,-2937 3196,-2937 z"
           id="path146"
           inkscape:connector-curvature="0"
           style="fill:none;stroke:#000000;stroke-width:100;stroke-linejoin:round" /></g></g><g
       class="com.sun.star.drawing.CustomShape"
       id="g148"
       transform="translate(2768.6442,6292.3732)"><g
         id="id10"><rect
           class="BoundingBox"
           x="17637"
           y="8850"
           width="348"
           height="347"
           id="rect151"
           style="fill:none;stroke:none" /><path
           d="m 17810,8850 c 98,0 173,75 173,172 0,97 -75,172 -173,172 -98,0 -173,-75 -173,-172 0,-97 75,-172 173,-172 z m -173,0 0,0 z m 347,345 0,0 z"
           id="path153"
           inkscape:connector-curvature="0"
           style="fill:#000000;stroke:none" /></g></g><g
       class="com.sun.star.drawing.CustomShape"
       id="g155"
       transform="translate(2768.6442,6292.3732)"><g
         id="id11"><rect
           class="BoundingBox"
           x="17808"
           y="12476"
           width="349"
           height="347"
           id="rect158"
           style="fill:none;stroke:none" /><path
           d="m 17982,12476 c 98,0 173,74 173,172 0,98 -75,173 -173,173 -98,0 -173,-75 -173,-173 0,-98 75,-172 173,-172 z m -173,0 0,0 z m 347,346 0,0 z"
           id="path160"
           inkscape:connector-curvature="0"
           style="fill:#000000;stroke:none" /></g></g><g
       class="com.sun.star.drawing.LineShape"
       id="g162"
       transform="translate(2768.6442,6292.3732)"><g
         id="id12"><rect
           class="BoundingBox"
           x="20524"
           y="9194"
           width="2470"
           height="1606"
           id="rect165"
           style="fill:none;stroke:none" /><path
           d="M 20574,10749 22450,9543"
           id="path167"
           inkscape:connector-curvature="0"
           style="fill:none;stroke:#000000;stroke-width:100;stroke-linejoin:round" /><path
           d="m 22993,9194 -689,176 243,378 446,-554 z"
           id="path169"
           inkscape:connector-curvature="0"
           style="fill:#000000;stroke:none" /></g></g><g
       class="com.sun.star.drawing.TextShape"
       id="g171"
       transform="translate(2768.6442,6292.3732)"><g
         id="id13"><rect
           class="BoundingBox"
           x="19148"
           y="10749"
           width="2252"
           height="1975"
           id="rect174"
           style="fill:none;stroke:none" /><text
           class="TextShape"
           id="text176"><tspan
             class="TextParagraph"
             font-size="635px"
             font-weight="400"
             id="tspan178"
             style="font-weight:400;font-size:635px;font-family:'Liberation Sans', sans-serif"><tspan
               class="TextPosition"
               x="19398"
               y="11450"
               id="tspan180"><tspan
                 id="tspan182"
                 style="fill:#000000;stroke:none">hand</tspan></tspan><tspan
               class="TextPosition"
               x="19398"
               y="12161"
               id="tspan184"><tspan
                 id="tspan186"
                 style="fill:#000000;stroke:none">Hot</tspan></tspan></tspan></text>
</g></g><g
       class="com.sun.star.drawing.TextShape"
       id="g188"
       transform="translate(2768.6442,6292.3732)"><g
         id="id14"><rect
           class="BoundingBox"
           x="19973"
           y="14065"
           width="2952"
           height="1136"
           id="rect191"
           style="fill:none;stroke:none" /><text
           class="TextShape"
           id="text193"><tspan
             class="TextParagraph"
             font-size="635px"
             font-weight="400"
             id="tspan195"
             style="font-weight:400;font-size:635px;font-family:'Liberation Sans', sans-serif"><tspan
               class="TextPosition"
               x="20223"
               y="14766"
               id="tspan197"><tspan
                 id="tspan199"
                 style="fill:#000000;stroke:none">0 hits</tspan></tspan></tspan></text>
</g></g><g
       class="com.sun.star.drawing.TextShape"
       id="g201"
       transform="translate(2768.6442,6292.3732)"><g
         id="id15"><rect
           class="BoundingBox"
           x="23083"
           y="12855"
           width="2674"
           height="1137"
           id="rect204"
           style="fill:none;stroke:none" /><text
           class="TextShape"
           id="text206"><tspan
             class="TextParagraph"
             font-size="635px"
             font-weight="400"
             id="tspan208"
             style="font-weight:400;font-size:635px;font-family:'Liberation Sans', sans-serif"><tspan
               class="TextPosition"
               x="23333"
               y="13556"
               id="tspan210"><tspan
                 id="tspan212"
                 style="fill:#000000;stroke:none">1 hit</tspan></tspan></tspan></text>
</g></g><g
       class="com.sun.star.drawing.TextShape"
       id="g214"
       transform="translate(2768.6442,6292.3732)"><g
         id="id16"><rect
           class="BoundingBox"
           x="19347"
           y="6400"
           width="2398"
           height="1136"
           id="rect217"
           style="fill:none;stroke:none" /><text
           class="TextShape"
           id="text219"><tspan
             class="TextParagraph"
             font-size="635px"
             font-weight="400"
             id="tspan221"
             style="font-weight:400;font-size:635px;font-family:'Liberation Sans', sans-serif"><tspan
               class="TextPosition"
               x="19597"
               y="7101"
               id="tspan223"><tspan
                 id="tspan225"
                 style="fill:#000000;stroke:none">0 hits</tspan></tspan></tspan></text>
</g></g><g
       class="com.sun.star.drawing.TextShape"
       id="g227"
       transform="translate(2768.6442,6292.3732)"><g
         id="id17"><rect
           class="BoundingBox"
           x="15911"
           y="12995"
           width="3275"
           height="1136"
           id="rect230"
           style="fill:none;stroke:none" /><text
           class="TextShape"
           id="text232"><tspan
             class="TextParagraph"
             font-size="635px"
             font-weight="400"
             id="tspan234"
             style="font-weight:400;font-size:635px;font-family:'Liberation Sans', sans-serif"><tspan
               class="TextPosition"
               x="16161"
               y="13696"
               id="tspan236"><tspan
                 id="tspan238"
                 style="fill:#000000;stroke:none">2 hits</tspan></tspan></tspan></text>
</g></g><g
       class="com.sun.star.drawing.TextShape"
       id="g240"
       transform="translate(2768.6442,6292.3732)"><g
         id="id18"><rect
           class="BoundingBox"
           x="14193"
           y="10404"
           width="3008"
           height="1136"
           id="rect243"
           style="fill:none;stroke:none" /><text
           class="TextShape"
           id="text245"><tspan
             class="TextParagraph"
             font-size="635px"
             font-weight="400"
             id="tspan247"
             style="font-weight:400;font-size:635px;font-family:'Liberation Sans', sans-serif"><tspan
               class="TextPosition"
               x="14443"
               y="11105"
               id="tspan249"><tspan
                 id="tspan251"
                 style="fill:#000000;stroke:none">0 hits</tspan></tspan></tspan></text>
</g></g><g
       class="com.sun.star.drawing.TextShape"
       id="g253"
       transform="translate(2768.6442,6292.3732)"><g
         id="id19"><rect
           class="BoundingBox"
           x="15137"
           y="8330"
           width="2238"
           height="1136"
           id="rect256"
           style="fill:none;stroke:none" /><text
           class="TextShape"
           id="text258"><tspan
             class="TextParagraph"
             font-size="635px"
             font-weight="400"
             id="tspan260"
             style="font-weight:400;font-size:635px;font-family:'Liberation Sans', sans-serif"><tspan
               class="TextPosition"
               x="15387"
               y="9031"
               id="tspan262"><tspan
                 id="tspan264"
                 style="fill:#000000;stroke:none">1 hit</tspan></tspan></tspan></text>
</g></g><g
       class="com.sun.star.drawing.TextShape"
       id="g266"
       transform="translate(2768.6442,6292.3732)"><g
         id="id20"><rect
           class="BoundingBox"
           x="23338"
           y="8363"
           width="2655"
           height="1137"
           id="rect269"
           style="fill:none;stroke:none" /><text
           class="TextShape"
           id="text271"><tspan
             class="TextParagraph"
             font-size="635px"
             font-weight="400"
             id="tspan273"
             style="font-weight:400;font-size:635px;font-family:'Liberation Sans', sans-serif"><tspan
               class="TextPosition"
               x="23588"
               y="9064"
               id="tspan275"><tspan
                 id="tspan277"
                 style="fill:#000000;stroke:none">4 hits</tspan></tspan></tspan></text>
</g></g><g
       class="com.sun.star.drawing.TextShape"
       id="g279"
       transform="translate(2768.6442,6292.3732)"><g
         id="id21"><rect
           class="BoundingBox"
           x="24119"
           y="10404"
           width="2582"
           height="1136"
           id="rect282"
           style="fill:none;stroke:none" /><text
           class="TextShape"
           id="text284"><tspan
             class="TextParagraph"
             font-size="635px"
             font-weight="400"
             id="tspan286"
             style="font-weight:400;font-size:635px;font-family:'Liberation Sans', sans-serif"><tspan
               class="TextPosition"
               x="24369"
               y="11105"
               id="tspan288"><tspan
                 id="tspan290"
                 style="fill:#000000;stroke:none">0 hits</tspan></tspan></tspan></text>
</g></g><g
       class="com.sun.star.drawing.TextShape"
       id="g292"
       transform="translate(2768.6442,6292.3732)"><g
         id="id22"><rect
           class="BoundingBox"
           x="5863"
           y="13815"
           width="2903"
           height="1136"
           id="rect295"
           style="fill:none;stroke:none" /><text
           class="TextShape"
           id="text297"><tspan
             class="TextParagraph"
             font-size="635px"
             font-weight="400"
             id="tspan299"
             style="font-weight:400;font-size:635px;font-family:'Liberation Sans', sans-serif"><tspan
               class="TextPosition"
               x="6113"
               y="14516"
               id="tspan301"><tspan
                 id="tspan303"
                 style="fill:#000000;stroke:none">2 hits</tspan></tspan></tspan></text>
</g></g><g
       class="Group"
       id="g305"
       transform="translate(2768.6442,6292.3732)"><g
         class="com.sun.star.drawing.CustomShape"
         id="g307"><g
           id="id23"><rect
             class="BoundingBox"
             x="7290"
             y="8411"
             width="281"
             height="278"
             id="rect310"
             style="fill:none;stroke:none" /><path
             d="m 7429,8411 c 79,0 140,60 140,138 0,78 -61,138 -140,138 -79,0 -139,-60 -139,-138 0,-78 60,-138 139,-138 z m -139,0 0,0 z m 280,277 0,0 z"
             id="path312"
             inkscape:connector-curvature="0"
             style="fill:#000000;stroke:none" /></g></g><g
         class="com.sun.star.drawing.CustomShape"
         id="g314"><g
           id="id24"><rect
             class="BoundingBox"
             x="7430"
             y="13134"
             width="280"
             height="281"
             id="rect317"
             style="fill:none;stroke:none" /><path
             d="m 7569,13134 c 79,0 139,60 139,139 0,79 -60,140 -139,140 -79,0 -139,-61 -139,-140 0,-79 60,-139 139,-139 z m -139,0 0,0 z m 279,280 0,0 z"
             id="path319"
             inkscape:connector-curvature="0"
             style="fill:#000000;stroke:none" /></g></g><g
         class="com.sun.star.drawing.CustomShape"
         id="g321"><g
           id="id25"><rect
             class="BoundingBox"
             x="9932"
             y="10773"
             width="280"
             height="280"
             id="rect324"
             style="fill:none;stroke:none" /><path
             d="m 10071,10773 c 79,0 139,60 139,139 0,79 -60,139 -139,139 -79,0 -139,-60 -139,-139 0,-79 60,-139 139,-139 z m -139,0 0,0 z m 279,279 0,0 z"
             id="path326"
             inkscape:connector-curvature="0"
             style="fill:#000000;stroke:none" /></g></g><g
         class="com.sun.star.drawing.CustomShape"
         id="g328"><g
           id="id26"><rect
             class="BoundingBox"
             x="4790"
             y="10773"
             width="280"
             height="280"
             id="rect331"
             style="fill:none;stroke:none" /><path
             d="m 4929,10773 c 79,0 139,60 139,139 0,79 -60,139 -139,139 -79,0 -139,-60 -139,-139 0,-79 60,-139 139,-139 z m -139,0 0,0 z m 279,279 0,0 z"
             id="path333"
             inkscape:connector-curvature="0"
             style="fill:#000000;stroke:none" /></g></g><g
         class="com.sun.star.drawing.CustomShape"
         id="g335"><g
           id="id27"><rect
             class="BoundingBox"
             x="4879"
             y="8498"
             width="5244"
             height="4827"
             id="rect338"
             style="fill:none;stroke:none" /><path
             d="m 7500,8548 c 1458,0 2571,1023 2571,2362 0,1339 -1113,2363 -2571,2363 -1458,0 -2571,-1024 -2571,-2363 0,-1339 1113,-2362 2571,-2362 z"
             id="path340"
             inkscape:connector-curvature="0"
             style="fill:none;stroke:#000000;stroke-width:100;stroke-linejoin:round" /></g></g><g
         class="com.sun.star.drawing.LineShape"
         id="g342"><g
           id="id28"><rect
             class="BoundingBox"
             x="7380"
             y="10861"
             width="451"
             height="1744"
             id="rect345"
             style="fill:none;stroke:none" /><path
             d="m 7570,10911 36,1048"
             id="path347"
             inkscape:connector-curvature="0"
             style="fill:none;stroke:#000000;stroke-width:100;stroke-linejoin:round" /><path
             d="m 7628,12604 202,-682 -450,15 248,667 z"
             id="path349"
             inkscape:connector-curvature="0"
             style="fill:#000000;stroke:none" /></g></g><g
         class="com.sun.star.drawing.TextShape"
         id="g351"><g
           id="id29"><rect
             class="BoundingBox"
             x="5817"
             y="9772"
             width="4255"
             height="1589"
             id="rect354"
             style="fill:none;stroke:none" /><text
             class="TextShape"
             id="text356"><tspan
               class="TextParagraph"
               font-size="635px"
               font-weight="400"
               id="tspan358"
               style="font-weight:400;font-size:635px;font-family:'Liberation Sans', sans-serif"><tspan
                 class="TextPosition"
                 x="6067"
                 y="10473"
                 id="tspan360"><tspan
                   id="tspan362"
                   style="fill:#000000;stroke:none">handCold</tspan></tspan></tspan></text>
</g></g><g
         class="com.sun.star.drawing.TextShape"
         id="g364"><g
           id="id30"><rect
             class="BoundingBox"
             x="6582"
             y="7412"
             width="3170"
             height="1136"
             id="rect367"
             style="fill:none;stroke:none" /><text
             class="TextShape"
             id="text369"><tspan
               class="TextParagraph"
               font-size="635px"
               font-weight="400"
               id="tspan371"
               style="font-weight:400;font-size:635px;font-family:'Liberation Sans', sans-serif"><tspan
                 class="TextPosition"
                 x="6832"
                 y="8113"
                 id="tspan373"><tspan
                   id="tspan375"
                   style="fill:#000000;stroke:none">5 hits</tspan></tspan></tspan></text>
</g></g><g
         class="com.sun.star.drawing.TextShape"
         id="g377"><g
           id="id31"><rect
             class="BoundingBox"
             x="2200"
             y="10289"
             width="2421"
             height="1136"
             id="rect380"
             style="fill:none;stroke:none" /><text
             class="TextShape"
             id="text382"><tspan
               class="TextParagraph"
               font-size="635px"
               font-weight="400"
               id="tspan384"
               style="font-weight:400;font-size:635px;font-family:'Liberation Sans', sans-serif"><tspan
                 class="TextPosition"
                 x="2450"
                 y="10990"
                 id="tspan386"><tspan
                   id="tspan388"
                   style="fill:#000000;stroke:none">0 hits</tspan></tspan></tspan></text>
</g></g><g
         class="com.sun.star.drawing.TextShape"
         id="g390"><g
           id="id32"><rect
             class="BoundingBox"
             x="10459"
             y="10289"
             width="3027"
             height="1136"
             id="rect393"
             style="fill:none;stroke:none" /><text
             class="TextShape"
             id="text395"><tspan
               class="TextParagraph"
               font-size="635px"
               font-weight="400"
               id="tspan397"
               style="font-weight:400;font-size:635px;font-family:'Liberation Sans', sans-serif"><tspan
                 class="TextPosition"
                 x="10709"
                 y="10990"
                 id="tspan399"><tspan
                   id="tspan401"
                   style="fill:#000000;stroke:none">1 hits</tspan></tspan></tspan></text>
</g></g></g></g></svg>